<svg xmlns="http://www.w3.org/2000/svg" xmlns:xlink="http://www.w3.org/1999/xlink" width="369.4" height="369.4" viewBox="0 0 369.4 369.4">
  <defs>
    <linearGradient id="linear-gradient" x1="1.059" y1="0.884" x2="0.127" y2="-0.024" gradientUnits="objectBoundingBox">
      <stop offset="0" stop-color="#f85316"/>
      <stop offset="0.077" stop-color="#f85519"/>
      <stop offset="1" stop-color="#ff713d"/>
    </linearGradient>
    <linearGradient id="linear-gradient-2" x1="-0.09" y1="0.097" x2="0.867" y2="0.992" gradientUnits="objectBoundingBox">
      <stop offset="0" stop-color="#3d46c2"/>
      <stop offset="1" stop-color="#4752e3"/>
    </linearGradient>
  </defs>
  <g id="Grupo_80128" data-name="Grupo 80128" transform="translate(0.001)">
    <g id="Grupo_80127" data-name="Grupo 80127" transform="translate(7.934 7.934)">
      <path id="Trazado_113538" data-name="Trazado 113538" d="M3842.838-1081.273a175.659,175.659,0,0,1-68.8-13.891,176.159,176.159,0,0,1-56.187-37.882,176.173,176.173,0,0,1-37.882-56.187,175.666,175.666,0,0,1-13.892-68.805,175.672,175.672,0,0,1,13.892-68.806,176.183,176.183,0,0,1,37.882-56.187,176.173,176.173,0,0,1,56.187-37.882,175.659,175.659,0,0,1,68.8-13.891,175.658,175.658,0,0,1,68.8,13.891,176.181,176.181,0,0,1,56.188,37.882,176.2,176.2,0,0,1,37.882,56.187,175.654,175.654,0,0,1,13.892,68.806,175.648,175.648,0,0,1-13.892,68.805,176.188,176.188,0,0,1-37.882,56.187,176.167,176.167,0,0,1-56.188,37.882A175.658,175.658,0,0,1,3842.838-1081.273Zm0-352.133c-96.7,0-175.368,78.67-175.368,175.368s78.67,175.368,175.368,175.368,175.368-78.67,175.368-175.368S3939.537-1433.405,3842.838-1433.405Z" transform="translate(-3666.073 1434.803)" fill="#fff"/>
    </g>
    <path id="Trazado_113539" data-name="Trazado 113539" d="M3817.589-1431.108h0a10.483,10.483,0,0,0,9.844,10.473,163.409,163.409,0,0,1,106.138,47.747,163.4,163.4,0,0,1,47.747,106.139,10.484,10.484,0,0,0,10.473,9.845h0a10.5,10.5,0,0,0,10.477-11.145,184.331,184.331,0,0,0-53.856-119.681,184.324,184.324,0,0,0-119.68-53.854A10.5,10.5,0,0,0,3817.589-1431.108Z" transform="translate(-3632.89 1441.604)" fill="url(#linear-gradient)"/>
    <path id="Trazado_113540" data-name="Trazado 113540" d="M3669.768-1283.287a10.5,10.5,0,0,0-10.477,11.146,184.314,184.314,0,0,0,53.854,119.678,184.32,184.32,0,0,0,119.681,53.857,10.5,10.5,0,0,0,11.145-10.478h0a10.482,10.482,0,0,0-9.844-10.472,163.4,163.4,0,0,1-106.14-47.748,163.4,163.4,0,0,1-47.747-106.137,10.484,10.484,0,0,0-10.473-9.845Z" transform="translate(-3659.272 1467.986)" fill="url(#linear-gradient-2)"/>
  </g>
</svg>
